<?xml version="1.0" encoding="iso-8859-1"?>
<!-- Generator: Adobe Illustrator 19.0.0, SVG Export Plug-In . SVG Version: 6.00 Build 0)  -->
<svg version="1.1" id="Layer_1" xmlns="http://www.w3.org/2000/svg" xmlns:xlink="http://www.w3.org/1999/xlink" x="0px" y="0px"
	 viewBox="0 0 512 512" style="enable-background:new 0 0 512 512;" xml:space="preserve">
<circle style="fill:#D35933;" cx="256" cy="256" r="256"/>
<path style="fill:#B54324;" d="M511.135,277.033L377.099,142.998l-13.653,11.881l-62.952-62.952L223.03,317.269l10.495,10.495
	l-113.714,53.951L250.02,511.924C252.007,511.969,254,512,256,512C390.301,512,500.434,408.578,511.135,277.033z"/>
<rect x="223.884" y="142.998" style="fill:#FFFFFF;" width="153.203" height="229.814"/>
<rect x="320.078" y="142.998" style="fill:#D0D1D3;" width="57.027" height="229.814"/>
<g>
	<rect x="281.531" y="165.443" style="fill:#71E2EF;" width="76.61" height="25.536"/>
	<rect x="281.531" y="216.505" style="fill:#71E2EF;" width="76.61" height="25.536"/>
	<rect x="281.531" y="267.585" style="fill:#71E2EF;" width="76.61" height="25.536"/>
</g>
<g>
	<rect x="320.078" y="165.443" style="fill:#38C6D9;" width="38.064" height="25.536"/>
	<rect x="320.078" y="216.505" style="fill:#38C6D9;" width="38.064" height="25.536"/>
	<rect x="320.078" y="267.585" style="fill:#38C6D9;" width="38.064" height="25.536"/>
</g>
<rect x="147.291" y="91.936" style="fill:#FFFFFF;" width="153.203" height="280.893"/>
<rect x="223.884" y="91.936" style="fill:#D0D1D3;" width="76.61" height="280.893"/>
<path style="fill:#477F3C;" d="M371.278,321.715c0-6.204-5.03-11.236-11.235-11.236c-4.206,0-7.868,2.315-9.794,5.739
	c-3.556,0.581-6.358,3.382-6.939,6.939c-0.203,0.116-0.39,0.255-0.586,0.383c-1.764-1.15-3.865-1.824-6.127-1.824
	c0-6.204-5.03-11.236-11.236-11.236c-4.206,0-7.868,2.315-9.793,5.739c-3.556,0.581-6.358,3.382-6.939,6.939
	c-0.203,0.116-0.39,0.255-0.586,0.383c-1.764-1.15-3.865-1.824-6.127-1.824c0-6.204-5.03-11.236-11.236-11.236
	c-4.206,0-7.868,2.315-9.794,5.739c-3.556,0.581-6.358,3.382-6.939,6.939c-0.203,0.116-0.39,0.255-0.586,0.383
	c-1.764-1.15-3.865-1.824-6.127-1.824c0-6.204-5.03-11.236-11.236-11.236c-4.206,0-7.868,2.315-9.794,5.739
	c-3.556,0.581-6.358,3.382-6.939,6.939c-0.203,0.116-0.39,0.255-0.586,0.383c-1.764-1.15-3.865-1.824-6.127-1.824
	c0-6.204-5.03-11.236-11.235-11.236c-4.206,0-7.868,2.315-9.794,5.739c-3.556,0.581-6.358,3.382-6.939,6.939
	c-0.203,0.116-0.39,0.255-0.586,0.383c-1.764-1.15-3.865-1.824-6.127-1.824c0-6.204-5.03-11.236-11.236-11.236
	c-4.206,0-7.868,2.315-9.794,5.739c-3.556,0.581-6.358,3.382-6.939,6.939c-0.203,0.116-0.39,0.255-0.586,0.383
	c-1.764-1.15-3.865-1.824-6.127-1.824c0-6.204-5.03-11.236-11.236-11.236c-4.206,0-7.868,2.315-9.794,5.739
	c-3.556,0.581-6.358,3.382-6.939,6.939c-3.422,1.926-5.739,5.587-5.739,9.793c0,6.204,5.03,11.236,11.236,11.236h22.471
	c2.253,0,4.346-0.669,6.104-1.812c1.758,1.141,3.851,1.812,6.104,1.812h22.471c2.253,0,4.346-0.669,6.104-1.812
	c1.758,1.141,3.853,1.812,6.104,1.812h22.475c2.253,0,4.346-0.669,6.104-1.812c1.758,1.141,3.851,1.812,6.104,1.812h22.471
	c2.253,0,4.346-0.669,6.104-1.812c1.758,1.141,3.853,1.812,6.104,1.812h22.471c2.253,0,4.346-0.669,6.104-1.812
	c1.758,1.141,3.853,1.812,6.104,1.812h22.471c2.253,0,4.346-0.669,6.104-1.812c1.758,1.141,3.853,1.812,6.104,1.812h22.471
	c6.206,0,11.236-5.03,11.236-11.236C382.511,326.744,377.484,321.715,371.278,321.715z"/>
<path style="fill:#2E5E24;" d="M371.278,321.715c0-6.206-5.03-11.236-11.235-11.236c-4.206,0-7.868,2.315-9.794,5.739
	c-3.556,0.581-6.358,3.382-6.939,6.939c-0.203,0.116-0.39,0.255-0.586,0.383c-1.764-1.15-3.865-1.824-6.127-1.824
	c0-6.206-5.03-11.236-11.236-11.236c-4.206,0-7.868,2.315-9.793,5.739c-3.556,0.581-6.358,3.382-6.939,6.939
	c-0.203,0.116-0.39,0.255-0.586,0.383c-1.764-1.15-3.865-1.824-6.127-1.824c0-6.206-5.03-11.236-11.236-11.236
	c-4.206,0-7.868,2.315-9.794,5.739c-3.556,0.581-6.358,3.382-6.939,6.939c-0.203,0.116-0.39,0.255-0.586,0.383
	c-1.764-1.15-3.865-1.824-6.127-1.824c0-6.206-5.03-11.236-11.236-11.236c-0.048,0-0.095,0.009-0.143,0.01v33.697h11.38
	c2.253,0,4.346-0.669,6.104-1.812c1.758,1.141,3.853,1.812,6.104,1.812h22.471c2.253,0,4.346-0.669,6.104-1.812
	c1.758,1.141,3.851,1.812,6.104,1.812h22.471c2.253,0,4.346-0.669,6.104-1.812c1.758,1.141,3.851,1.812,6.104,1.812h22.471
	c6.204,0,11.236-5.03,11.236-11.236C382.514,326.746,377.484,321.715,371.278,321.715z"/>
<rect x="126.776" y="330.645" style="fill:#FFC61B;" width="258.448" height="51.071"/>
<g>
	<rect x="255.862" y="330.645" style="fill:#EAA22F;" width="129.362" height="51.071"/>
	<rect x="119.811" y="356.176" style="fill:#EAA22F;" width="272.377" height="25.536"/>
</g>
<rect x="255.862" y="356.176" style="fill:#E09112;" width="136.326" height="25.536"/>
<path style="fill:#ABEAED;" d="M212.949,128.55h-10.321c-1.814,0-3.284-1.47-3.284-3.284v-10.321c0-1.814,1.47-3.284,3.284-3.284
	h10.321c1.814,0,3.284,1.47,3.284,3.284v10.321C216.233,127.079,214.762,128.55,212.949,128.55z"/>
<g>
	<path style="fill:#71E2EF;" d="M245.214,128.55h-10.321c-1.814,0-3.284-1.47-3.284-3.284v-10.321c0-1.814,1.47-3.284,3.284-3.284
		h10.321c1.814,0,3.284,1.47,3.284,3.284v10.321C248.498,127.079,247.027,128.55,245.214,128.55z"/>
	<path style="fill:#71E2EF;" d="M277.476,128.55h-10.321c-1.814,0-3.284-1.47-3.284-3.284v-10.321c0-1.814,1.47-3.284,3.284-3.284
		h10.321c1.814,0,3.284,1.47,3.284,3.284v10.321C280.762,127.079,279.292,128.55,277.476,128.55z"/>
</g>
<path style="fill:#ABEAED;" d="M212.949,160.289h-10.321c-1.814,0-3.284-1.47-3.284-3.284v-10.321c0-1.814,1.47-3.284,3.284-3.284
	h10.321c1.814,0,3.284,1.47,3.284,3.284v10.321C216.233,158.818,214.762,160.289,212.949,160.289z"/>
<g>
	<path style="fill:#71E2EF;" d="M245.214,160.289h-10.321c-1.814,0-3.284-1.47-3.284-3.284v-10.321c0-1.814,1.47-3.284,3.284-3.284
		h10.321c1.814,0,3.284,1.47,3.284,3.284v10.321C248.498,158.818,247.027,160.289,245.214,160.289z"/>
	<path style="fill:#71E2EF;" d="M277.476,160.289h-10.321c-1.814,0-3.284-1.47-3.284-3.284v-10.321c0-1.814,1.47-3.284,3.284-3.284
		h10.321c1.814,0,3.284,1.47,3.284,3.284v10.321C280.762,158.818,279.292,160.289,277.476,160.289z"/>
</g>
<path style="fill:#ABEAED;" d="M212.949,192.028h-10.321c-1.814,0-3.284-1.47-3.284-3.284v-10.321c0-1.814,1.47-3.284,3.284-3.284
	h10.321c1.814,0,3.284,1.47,3.284,3.284v10.321C216.233,190.557,214.762,192.028,212.949,192.028z"/>
<g>
	<path style="fill:#71E2EF;" d="M245.214,192.028h-10.321c-1.814,0-3.284-1.47-3.284-3.284v-10.321c0-1.814,1.47-3.284,3.284-3.284
		h10.321c1.814,0,3.284,1.47,3.284,3.284v10.321C248.498,190.557,247.027,192.028,245.214,192.028z"/>
	<path style="fill:#71E2EF;" d="M277.476,192.028h-10.321c-1.814,0-3.284-1.47-3.284-3.284v-10.321c0-1.814,1.47-3.284,3.284-3.284
		h10.321c1.814,0,3.284,1.47,3.284,3.284v10.321C280.762,190.557,279.292,192.028,277.476,192.028z"/>
</g>
<g>
	<path style="fill:#ABEAED;" d="M212.949,223.766h-10.321c-1.814,0-3.284-1.47-3.284-3.284v-10.321c0-1.814,1.47-3.284,3.284-3.284
		h10.321c1.814,0,3.284,1.47,3.284,3.284v10.321C216.233,222.296,214.762,223.766,212.949,223.766z"/>
	<path style="fill:#ABEAED;" d="M180.686,128.55h-10.321c-1.814,0-3.284-1.47-3.284-3.284v-10.321c0-1.814,1.47-3.284,3.284-3.284
		h10.321c1.814,0,3.284,1.47,3.284,3.284v10.321C183.97,127.079,182.5,128.55,180.686,128.55z"/>
	<path style="fill:#ABEAED;" d="M180.686,160.289h-10.321c-1.814,0-3.284-1.47-3.284-3.284v-10.321c0-1.814,1.47-3.284,3.284-3.284
		h10.321c1.814,0,3.284,1.47,3.284,3.284v10.321C183.97,158.818,182.5,160.289,180.686,160.289z"/>
	<path style="fill:#ABEAED;" d="M180.686,192.028h-10.321c-1.814,0-3.284-1.47-3.284-3.284v-10.321c0-1.814,1.47-3.284,3.284-3.284
		h10.321c1.814,0,3.284,1.47,3.284,3.284v10.321C183.97,190.557,182.5,192.028,180.686,192.028z"/>
	<path style="fill:#ABEAED;" d="M180.686,223.766h-10.321c-1.814,0-3.284-1.47-3.284-3.284v-10.321c0-1.814,1.47-3.284,3.284-3.284
		h10.321c1.814,0,3.284,1.47,3.284,3.284v10.321C183.97,222.296,182.5,223.766,180.686,223.766z"/>
</g>
<g>
	<path style="fill:#71E2EF;" d="M245.214,223.766h-10.321c-1.814,0-3.284-1.47-3.284-3.284v-10.321c0-1.814,1.47-3.284,3.284-3.284
		h10.321c1.814,0,3.284,1.47,3.284,3.284v10.321C248.498,222.296,247.027,223.766,245.214,223.766z"/>
	<path style="fill:#71E2EF;" d="M277.476,223.766h-10.321c-1.814,0-3.284-1.47-3.284-3.284v-10.321c0-1.814,1.47-3.284,3.284-3.284
		h10.321c1.814,0,3.284,1.47,3.284,3.284v10.321C280.762,222.296,279.292,223.766,277.476,223.766z"/>
</g>
<g>
	<path style="fill:#ABEAED;" d="M212.949,255.505h-10.321c-1.814,0-3.284-1.47-3.284-3.284V241.9c0-1.814,1.47-3.284,3.284-3.284
		h10.321c1.814,0,3.284,1.47,3.284,3.284v10.321C216.233,254.035,214.762,255.505,212.949,255.505z"/>
	<path style="fill:#ABEAED;" d="M180.686,255.505h-10.321c-1.814,0-3.284-1.47-3.284-3.284V241.9c0-1.814,1.47-3.284,3.284-3.284
		h10.321c1.814,0,3.284,1.47,3.284,3.284v10.321C183.97,254.035,182.5,255.505,180.686,255.505z"/>
</g>
<g>
	<path style="fill:#71E2EF;" d="M245.214,255.505h-10.321c-1.814,0-3.284-1.47-3.284-3.284V241.9c0-1.814,1.47-3.284,3.284-3.284
		h10.321c1.814,0,3.284,1.47,3.284,3.284v10.321C248.498,254.035,247.027,255.505,245.214,255.505z"/>
	<path style="fill:#71E2EF;" d="M277.476,255.505h-10.321c-1.814,0-3.284-1.47-3.284-3.284V241.9c0-1.814,1.47-3.284,3.284-3.284
		h10.321c1.814,0,3.284,1.47,3.284,3.284v10.321C280.762,254.035,279.292,255.505,277.476,255.505z"/>
</g>
<g>
	<path style="fill:#ABEAED;" d="M212.949,287.246h-10.321c-1.814,0-3.284-1.47-3.284-3.284v-10.321c0-1.814,1.47-3.284,3.284-3.284
		h10.321c1.814,0,3.284,1.47,3.284,3.284v10.321C216.233,285.775,214.762,287.246,212.949,287.246z"/>
	<path style="fill:#ABEAED;" d="M180.686,287.246h-10.321c-1.814,0-3.284-1.47-3.284-3.284v-10.321c0-1.814,1.47-3.284,3.284-3.284
		h10.321c1.814,0,3.284,1.47,3.284,3.284v10.321C183.97,285.775,182.5,287.246,180.686,287.246z"/>
</g>
<g>
	<path style="fill:#71E2EF;" d="M245.214,287.246h-10.321c-1.814,0-3.284-1.47-3.284-3.284v-10.321c0-1.814,1.47-3.284,3.284-3.284
		h10.321c1.814,0,3.284,1.47,3.284,3.284v10.321C248.498,285.775,247.027,287.246,245.214,287.246z"/>
	<path style="fill:#71E2EF;" d="M277.476,287.246h-10.321c-1.814,0-3.284-1.47-3.284-3.284v-10.321c0-1.814,1.47-3.284,3.284-3.284
		h10.321c1.814,0,3.284,1.47,3.284,3.284v10.321C280.762,285.775,279.292,287.246,277.476,287.246z"/>
</g>
<g>
</g>
<g>
</g>
<g>
</g>
<g>
</g>
<g>
</g>
<g>
</g>
<g>
</g>
<g>
</g>
<g>
</g>
<g>
</g>
<g>
</g>
<g>
</g>
<g>
</g>
<g>
</g>
<g>
</g>
</svg>
